<svg width="40" height="40" viewBox="0 0 40 40" fill="none" xmlns="http://www.w3.org/2000/svg">
<path d="M32.5 13.3334V34.1667C32.5 35.0876 31.7542 35.8334 30.8333 35.8334H9.16667C8.24583 35.8334 7.5 35.0876 7.5 34.1667V5.83341C7.5 4.91258 8.24583 4.16675 9.16667 4.16675H23.3333L32.5 13.3334Z" fill="#FFCACE"/>
<path d="M23.3335 4.16675V11.6667C23.3335 12.5876 24.0793 13.3334 25.0002 13.3334H32.5002L23.3335 4.16675Z" fill="#E72636"/>
<path d="M13.9485 22.4917V24.6009H12.5693V18.4775H14.7293C16.2727 18.4775 17.0435 19.1284 17.0435 20.4292C17.0435 21.0442 16.8227 21.5417 16.3793 21.9217C15.9368 22.3017 15.3452 22.4917 14.6052 22.4917H13.9485ZM13.9485 19.5375V21.4459H14.491C15.226 21.4459 15.5927 21.1242 15.5927 20.48C15.5927 19.8517 15.226 19.5367 14.491 19.5367L13.9485 19.5375Z" fill="#B01427"/>
<path d="M17.9402 24.6009V18.4775H20.1094C22.2844 18.4775 23.3711 19.4725 23.3711 21.4617C23.3711 22.4159 23.0744 23.1767 22.4811 23.7459C21.8877 24.3159 21.0969 24.6 20.1094 24.6L17.9402 24.6009ZM19.3194 19.6009V23.4817H20.0027C20.6002 23.4817 21.0686 23.3025 21.4094 22.9442C21.7494 22.5859 21.9194 22.0975 21.9194 21.4792C21.9194 20.8959 21.7511 20.4367 21.4144 20.1025C21.0769 19.7675 20.6036 19.6009 19.9944 19.6009H19.3194Z" fill="#B01427"/>
<path d="M27.9286 19.6009H25.7678V21.1034H27.7536V22.2225H25.7678V24.6009H24.3886V18.4775H27.9286V19.6009Z" fill="#B01427"/>
</svg>
