<svg width="40" height="40" viewBox="0 0 40 40" fill="none" xmlns="http://www.w3.org/2000/svg">
<g clip-path="url(#clip0_186_1115)">
<path d="M20 40C31.0457 40 40 31.0457 40 20C40 8.95431 31.0457 0 20 0C8.95431 0 0 8.95431 0 20C0 31.0457 8.95431 40 20 40Z" fill="url(#paint0_linear_186_1115)"/>
<path d="M13.5381 21.4619L15.9109 28.0296C15.9109 28.0296 16.2076 28.6441 16.5253 28.6441C16.8429 28.6441 21.5678 23.7288 21.5678 23.7288L26.8219 13.5804L13.6228 19.7666L13.5381 21.4619Z" fill="#C8DAEA"/>
<path d="M16.6842 23.1464L16.2287 27.9874C16.2287 27.9874 16.038 29.4707 17.521 27.9874C19.004 26.504 20.4235 25.3602 20.4235 25.3602" fill="#A9C6D8"/>
<path d="M13.5809 21.6964L8.69986 20.106C8.69986 20.106 8.11652 19.8694 8.30436 19.3327C8.34302 19.222 8.42102 19.1279 8.65435 18.966C9.73585 18.2122 28.672 11.406 28.672 11.406C28.672 11.406 29.2067 11.2259 29.522 11.3457C29.6 11.3698 29.6702 11.4143 29.7254 11.4745C29.7806 11.5346 29.8189 11.6084 29.8362 11.6882C29.8703 11.8291 29.8845 11.9741 29.8785 12.119C29.877 12.2444 29.8619 12.3605 29.8504 12.5427C29.735 14.4035 26.2837 28.2915 26.2837 28.2915C26.2837 28.2915 26.0772 29.1042 25.3374 29.132C25.1555 29.1379 24.9744 29.1071 24.8047 29.0415C24.6351 28.9758 24.4804 28.8767 24.3499 28.75C22.898 27.5012 17.88 24.1289 16.7712 23.3872C16.7462 23.3701 16.7251 23.3479 16.7094 23.3221C16.6937 23.2962 16.6838 23.2672 16.6802 23.2372C16.6647 23.159 16.7497 23.0622 16.7497 23.0622C16.7497 23.0622 25.4874 15.2955 25.7199 14.4802C25.7379 14.417 25.6699 14.3859 25.5785 14.4135C24.9982 14.627 14.9379 20.9802 13.8275 21.6814C13.7476 21.7055 13.6631 21.7107 13.5809 21.6964Z" fill="white"/>
</g>
<defs>
<linearGradient id="paint0_linear_186_1115" x1="20" y1="40" x2="20" y2="0" gradientUnits="userSpaceOnUse">
<stop stop-color="#1D93D2"/>
<stop offset="1" stop-color="#38B0E3"/>
</linearGradient>
<clipPath id="clip0_186_1115">
<rect width="40" height="40" fill="white"/>
</clipPath>
</defs>
</svg>
