<svg width="40" height="40" viewBox="0 0 40 40" fill="none" xmlns="http://www.w3.org/2000/svg">
<g clip-path="url(#clip0_186_1120)">
<path d="M39.978 20C39.978 31.0338 31.0333 39.9785 19.9995 39.9785C8.96571 39.9785 0.0210405 31.0338 0.0210405 20C0.0210405 8.9662 8.96571 0.0215288 19.9995 0.0215288C31.0333 0.0215288 39.978 8.9662 39.978 20Z" fill="#7360F2" stroke="#7360F2" stroke-width="0.0430576"/>
<path d="M29.0376 9.39526C28.4348 8.84757 25.8328 7.21267 20.4036 7.18899C20.4036 7.18899 13.9747 6.76659 10.8539 9.59333C9.11695 11.3083 8.5318 13.8586 8.46764 16.9708C8.40349 20.083 8.07108 26.0284 13.7637 27.6099C13.7637 27.6099 13.7413 32.0238 13.7388 32.4117C13.7388 32.683 13.7818 32.8686 13.9368 32.9069C14.0483 32.934 14.2154 32.8763 14.3575 32.7347C15.2677 31.8205 18.1819 28.3049 18.1819 28.3049C22.0919 28.5602 25.2029 27.7882 25.5374 27.6788C26.3262 27.4252 30.5928 27.0588 31.3149 21.2262C32.0611 15.2141 31.0406 11.1102 29.0376 9.39526Z" fill="white"/>
<path d="M23.1639 16.715C23.0933 15.2916 22.3702 14.5439 20.9946 14.4722" stroke="#7360F2" stroke-width="0.725952" stroke-linecap="round" stroke-linejoin="round"/>
<path d="M25.0265 17.3394C25.0552 16.0133 24.6624 14.9052 23.848 14.0154C23.0299 13.1224 21.8975 12.6306 20.4443 12.5243" stroke="#7360F2" stroke-width="0.725952" stroke-linecap="round" stroke-linejoin="round"/>
<path d="M26.9328 18.0852C26.9153 15.7839 26.2277 13.9714 24.8699 12.6478C23.5122 11.3243 21.8236 10.6554 19.8042 10.6414" stroke="#7360F2" stroke-width="0.725952" stroke-linecap="round" stroke-linejoin="round"/>
<path d="M21.0613 21.5979L21.0614 21.5976C19.1902 21.1199 18.0044 19.9333 17.2868 18.867C16.928 18.3339 16.686 17.8306 16.5338 17.4606C16.4576 17.2755 16.4039 17.1238 16.3692 17.0182C16.3518 16.9654 16.3392 16.9241 16.3309 16.896L16.3217 16.8639L16.3194 16.8557L16.3188 16.8535L16.3187 16.853L16.3187 16.8528L16.3395 16.8473M21.0613 21.5979L14.3328 11.2723L14.3355 11.2715V11.2736L14.3455 11.2685C14.6005 11.1357 14.8474 11.0925 15.0708 11.1299C15.294 11.1673 15.4954 11.2855 15.6591 11.4786L15.659 11.4786L15.6597 11.4793L15.6597 11.4793L15.6612 11.4811L15.6673 11.4883L15.6901 11.5157L15.773 11.6158C15.8428 11.7003 15.9386 11.8169 16.0437 11.946C16.2538 12.2044 16.5004 12.5126 16.6484 12.7147C16.9533 13.1437 17.2365 13.5876 17.497 14.0449C17.8321 14.6459 17.621 15.2589 17.2955 15.5097L17.2953 15.5099L16.6214 16.0455L16.6213 16.0456C16.4457 16.1874 16.3703 16.3893 16.3384 16.5537C16.3225 16.6362 16.3174 16.7098 16.3162 16.7628C16.3157 16.7894 16.3161 16.8108 16.3167 16.8257L16.3175 16.8429L16.3179 16.8475L16.318 16.8487L16.318 16.849L16.318 16.8491L16.318 16.8492L16.3395 16.8473M21.0613 21.5979L21.0649 21.5982M21.0613 21.5979L21.0649 21.5982M16.3395 16.8473L16.3186 16.8528L16.3177 16.8492L16.3395 16.8473ZM21.0649 21.5982L21.0667 21.5767M21.0649 21.5982L21.0667 21.5767M21.0667 21.5767L21.065 21.5982L21.065 21.5982L21.0651 21.5982L21.0654 21.5982L21.0667 21.5983L21.0712 21.5986L21.0884 21.5994C21.1033 21.6 21.1247 21.6003 21.1513 21.5997C21.2043 21.5984 21.2779 21.5931 21.3603 21.5771C21.5247 21.5451 21.7266 21.4696 21.8684 21.2949L21.8685 21.2948M21.0667 21.5767L21.8685 21.2948M21.8685 21.2948L22.4042 20.6209L22.4044 20.6207M21.8685 21.2948L22.4044 20.6207M22.4044 20.6207C22.656 20.2952 23.2677 20.0841 23.8691 20.4192C24.326 20.6797 24.7695 20.9629 25.198 21.2678C25.4001 21.4165 25.7084 21.6636 25.9667 21.874C26.0959 21.9791 26.2125 22.0749 26.2969 22.1445L26.3971 22.227L26.4246 22.2495L26.4321 22.2555L26.4343 22.2573L26.435 22.2578C26.6287 22.4216 26.7471 22.6229 26.7847 22.8458C26.8224 23.0692 26.7792 23.3162 26.6464 23.5711L26.644 23.5699M22.4044 20.6207L26.644 23.5699M26.644 23.5699V23.5797L26.6437 23.581L26.6428 23.5844M26.644 23.5699L26.6428 23.5844M26.6428 23.5844C26.3482 24.0943 25.9747 24.5541 25.536 24.9469C25.5323 24.9492 25.5299 24.9515 25.5283 24.9532L25.5282 24.953L25.5249 24.9557C25.143 25.2749 24.7694 25.4549 24.4042 25.4981L24.4042 25.4981L24.403 25.4983C24.35 25.5076 24.2962 25.511 24.2424 25.5083L24.2412 25.5083C24.0825 25.5099 23.9247 25.486 23.7736 25.4376L23.7657 25.426L23.7613 25.4195L23.7538 25.4174C23.1853 25.2571 22.2337 24.855 20.6466 23.9794L20.6465 23.9794C19.7289 23.4791 18.8553 22.9021 18.0351 22.2544L18.0217 22.2713L18.035 22.2544C17.6241 21.93 17.2321 21.5824 16.861 21.2131L26.6428 23.5844ZM12.9697 12.3789C13.3624 11.9402 13.8224 11.5667 14.3324 11.2724L16.7026 21.0548C16.7026 21.0548 16.7026 21.0547 16.7026 21.0547C16.3333 20.6836 15.9857 20.2916 15.6614 19.8807L15.6445 19.894L15.6614 19.8807C15.0138 19.0606 14.4367 18.1871 13.9364 17.2697L13.9363 17.2696C13.0607 15.682 12.6587 14.7313 12.4983 14.162L12.4962 14.1544L12.4898 14.15L12.4782 14.1421C12.4299 13.9911 12.4062 13.8332 12.4079 13.6746L12.4078 13.6732C12.4049 13.6195 12.4081 13.5657 12.4174 13.5128L12.4175 13.5128L12.4176 13.5117C12.4632 13.1469 12.6435 12.773 12.9609 12.3899L12.9612 12.3902L12.9629 12.3872C12.963 12.3871 12.963 12.387 12.9631 12.3869C12.9648 12.3853 12.9673 12.3829 12.9697 12.3789ZM14.3383 11.2706C14.3384 11.2706 14.3384 11.2706 14.3383 11.2706L14.3383 11.2706Z" fill="#7360F2" stroke="#7360F2" stroke-width="0.0430576"/>
</g>
<defs>
<clipPath id="clip0_186_1120">
<rect width="40" height="40" fill="white"/>
</clipPath>
</defs>
</svg>
