<svg width="40" height="40" viewBox="0 0 40 40" fill="none" xmlns="http://www.w3.org/2000/svg">
<g clip-path="url(#clip0_186_1110)">
<path d="M19.9775 39.7354C30.8895 39.7354 39.7354 30.8895 39.7354 19.9775C39.7354 9.0656 30.8895 0.219727 19.9775 0.219727C9.0656 0.219727 0.219727 9.0656 0.219727 19.9775C0.219727 30.8895 9.0656 39.7354 19.9775 39.7354Z" fill="#2AB540"/>
<path d="M7.30542 19.8626C7.30454 22.1044 7.89025 24.2931 9.00416 26.2224L7.19873 32.814L13.9449 31.045C15.8035 32.0588 17.896 32.5927 20.0259 32.5936H20.0312C27.0444 32.5936 32.7535 26.8862 32.7566 19.8722C32.7579 16.473 31.435 13.2766 29.0329 10.8723C26.6303 8.46801 23.4353 7.14292 20.0312 7.1416C13.0167 7.1416 7.3085 12.8481 7.30542 19.8626ZM11.3228 25.89L11.0708 25.49C10.0118 23.8067 9.45288 21.8607 9.45376 19.863C9.45595 14.0331 14.2005 9.28993 20.0347 9.28993C22.8601 9.29125 25.5151 10.3924 27.5124 12.3906C29.5093 14.3892 30.6082 17.046 30.6078 19.8709C30.6052 25.7012 25.8606 30.4448 20.0308 30.4448H20.0268C18.1288 30.4435 16.2671 29.9342 14.6435 28.9709L14.2571 28.7417L10.2537 29.7915L11.3228 25.89Z" fill="white"/>
<path d="M16.8504 14.5437C16.612 14.0142 16.3617 14.0036 16.1347 13.9944C15.9494 13.9865 15.7374 13.9869 15.5253 13.9869C15.3132 13.9869 14.9686 14.0664 14.6775 14.3847C14.3859 14.7031 13.5645 15.4723 13.5645 17.0362C13.5645 18.6006 14.7038 20.1123 14.8628 20.3248C15.0217 20.5369 17.0625 23.8496 20.294 25.1242C22.9801 26.1832 23.5263 25.9729 24.1094 25.9198C24.6925 25.8667 25.9908 25.151 26.2556 24.4085C26.5207 23.6661 26.5207 23.0299 26.4413 22.8968C26.3618 22.7642 26.1497 22.6848 25.8319 22.5258C25.514 22.3669 23.9505 21.5977 23.6594 21.4914C23.3678 21.3856 23.1558 21.3325 22.9437 21.6508C22.7316 21.9687 22.1227 22.6848 21.9374 22.8968C21.7521 23.1093 21.5664 23.1357 21.2485 22.9767C20.9306 22.8174 19.9063 22.4819 18.6914 21.3988C17.7461 20.5558 17.1081 19.5152 16.9224 19.1969C16.7371 18.879 16.9026 18.7069 17.062 18.5484C17.2047 18.4061 17.3799 18.1769 17.5393 17.9916C17.6978 17.8059 17.7509 17.6733 17.8567 17.4612C17.963 17.2492 17.9099 17.0635 17.8304 16.9041C17.7509 16.7447 17.1332 15.1724 16.8504 14.5437Z" fill="white"/>
</g>
<defs>
<clipPath id="clip0_186_1110">
<rect width="40" height="40" fill="white"/>
</clipPath>
</defs>
</svg>
