<svg width="24" height="38" viewBox="0 0 24 38" fill="none" xmlns="http://www.w3.org/2000/svg">
<g clip-path="url(#clip0_39_202)">
<path d="M6.23583 37.394C6.12992 37.7899 6.53434 38.1281 6.90459 37.9526C20.8987 31.3294 26.985 20.7121 21.377 13.2177C16.9595 7.31456 16.8763 4.84192 18.8493 0.684991C19.0329 0.297654 18.652 -0.117441 18.2497 0.030746C3.5834 5.42442 -4.08048 17.9883 2.21897 24.8801C6.90416 30.006 7.29577 33.4246 6.2354 37.394H6.23583Z" fill="#FFFF00"/>
<path d="M21.1327 19.0567L8.6162 34.9921C8.3621 35.3158 7.84708 35.0575 7.9547 34.6603L11.0824 23.1103C11.2276 22.5735 10.8236 22.0456 10.2676 22.0456H3.34851C2.7075 22.0456 2.34878 21.3072 2.74465 20.8029L15.2757 4.84864C15.5298 4.52493 16.0448 4.7833 15.9372 5.18046L12.8043 16.7493C12.6591 17.2861 13.0631 17.814 13.6191 17.814H20.5284C21.1694 17.814 21.5281 18.5523 21.1323 19.0567H21.1327Z" fill="#B01427"/>
</g>
<defs>
<clipPath id="clip0_39_202">
<rect width="23.4495" height="38" fill="white"/>
</clipPath>
</defs>
</svg>
